{"title":"Futurama-BeastWithABilltionBacks(BRRip)720.MKV.MPEG","uid":15711501,"size":1366688672,"categoryP":"video","categoryS":"movies","magnet":"?xt=urn:btih:7bda519c0bd1941a7c1014759acecd217ea40154&amp;dn=Futurama-BeastWithABilltionBacks%28BRRip%29720.MKV.MPEG&amp;tr=udp%3A%2F%2Ftracker.leechers-paradise.org%3A6969&amp;tr=udp%3A%2F%2Fzer0day.ch%3A1337&amp;tr=udp%3A%2F%2Fopen.demonii.com%3A1337&amp;tr=udp%3A%2F%2Ftracker.coppersurfer.tk%3A6969&amp;tr=udp%3A%2F%2Fexodus.desync.com%3A6969","seeders":1,"leechers":0,"uploader":"sl1pstar","files":1,"time":1472579063,"description":"Format                                   : Matroska\r\nFormat version                           : Version 2\r\nFile size                                : 1.27 GiB\r\nDuration                                 : 1h 28mn\r\nOverall bit rate                         : 2 051 Kbps\r\nWriting application                      : Lavf52.17.0\r\nWriting library                          : Lavf52.17.0\r\n\r\nVideo\r\nID                                       : 1\r\nFormat                                   : AVC\r\nFormat/Info                              : Advanced Video Codec\r\nFormat profile                           :   \r\nFormat settings, CABAC                   : No\r\nFormat settings, ReFrames                : 1 frame\r\nCodec ID                                 : V_MPEG4/ISO/AVC\r\nDuration                                 : 1h 28mn\r\nBit rate                                 : 1 562 Kbps\r\nWidth                                    : 704 pixels\r\nHeight                                   : 400 pixels\r\nDisplay aspect ratio                     : 16:9\r\nFrame rate mode                          : Constant\r\nFrame rate                               : 24.000 fps\r\nOriginal frame rate                      : 23.976 (24000/1001) fps\r\nColor space                              : YUV\r\nChroma subsampling                       : 4:2:0\r\nBit depth                                : 8 bits\r\nScan type                                : Progressive\r\nBits/(Pixel*Frame)                       : 0.231\r\nStream size                              : 993 MiB (76%)\r\nDefault                                  : No\r\nForced                                   : No\r\n\r\nAudio\r\nID                                       : 2\r\nFormat                                   : AC-3\r\nFormat/Info                              : Audio Coding 3\r\nMode extension                           : CM (complete main)\r\nFormat settings, Endianness              : Big\r\nCodec ID                                 : A_AC3\r\nDuration                                 : 1h 28mn\r\nBit rate mode                            : Constant\r\nBit rate                                 : 448 Kbps\r\nChannel(s)                               : 6 channels\r\nChannel positions                        : Front: L C R, Side: L R, LFE\r\nSampling rate                            : 48.0 KHz\r\nFrame rate                               : 31.250 fps (1536 spf)\r\nBit depth                                : 16 bits\r\nCompression mode                         : Lossy\r\nStream size                              : 285 MiB (22%)\r\nDefault                                  : No\r\nForced                                   : No","torrent":{"xt":"urn:btih:7bda519c0bd1941a7c1014759acecd217ea40154","amp;dn":"Futurama-BeastWithABilltionBacks%28BRRip%29720.MKV.MPEG","amp;tr":["udp%3A%2F%2Ftracker.leechers-paradise.org%3A6969","udp%3A%2F%2Fzer0day.ch%3A1337","udp%3A%2F%2Fopen.demonii.com%3A1337","udp%3A%2F%2Ftracker.coppersurfer.tk%3A6969","udp%3A%2F%2Fexodus.desync.com%3A6969"],"infoHash":"7bda519c0bd1941a7c1014759acecd217ea40154","infoHashBuffer":{"type":"Buffer","data":[123,218,81,156,11,209,148,26,124,16,20,117,154,206,205,33,126,164,1,84]},"announce":[],"urlList":[]}}